<svg width="54" height="38" viewBox="0 0 54 38" fill="none" xmlns="http://www.w3.org/2000/svg">
<path fill-rule="evenodd" clip-rule="evenodd" d="M19 23.6667C12.76 23.6667 0.333374 26.7867 0.333374 33V37.6667H37.6667V33C37.6667 26.7867 25.24 23.6667 19 23.6667ZM6.57337 32.3333C8.81337 30.7867 14.2267 29 19 29C23.7734 29 29.1867 30.7867 31.4267 32.3333H6.57337ZM19 19C24.1467 19 28.3334 14.8133 28.3334 9.66667C28.3334 4.52 24.1467 0.333336 19 0.333336C13.8534 0.333336 9.66671 4.52 9.66671 9.66667C9.66671 14.8133 13.8534 19 19 19ZM19 5.66667C21.2134 5.66667 23 7.45334 23 9.66667C23 11.88 21.2134 13.6667 19 13.6667C16.7867 13.6667 15 11.88 15 9.66667C15 7.45334 16.7867 5.66667 19 5.66667ZM37.7734 23.8267C40.8667 26.0667 43 29.0533 43 33V37.6667H53.6667V33C53.6667 27.6133 44.3334 24.5467 37.7734 23.8267ZM35 19C40.1467 19 44.3334 14.8133 44.3334 9.66667C44.3334 4.52 40.1467 0.333336 35 0.333336C33.56 0.333336 32.2267 0.680003 31 1.26667C32.68 3.64 33.6667 6.54667 33.6667 9.66667C33.6667 12.7867 32.68 15.6933 31 18.0667C32.2267 18.6533 33.56 19 35 19Z" fill="#F72585"/>
</svg>
