<svg width="60" height="60" viewBox="0 0 60 60" fill="none" xmlns="http://www.w3.org/2000/svg">
<path fill-rule="evenodd" clip-rule="evenodd" d="M30 59.3333C13.7996 59.3333 0.666626 46.2003 0.666626 30C0.666626 13.7996 13.7996 0.666664 30 0.666664C46.2003 0.666664 59.3333 13.7996 59.3333 30C59.3333 46.2003 46.2003 59.3333 30 59.3333ZM49.7319 43.6657C52.4229 39.7875 54 35.0779 54 30C54 16.7452 43.2548 6 30 6C16.7451 6 5.99996 16.7452 5.99996 30C5.99996 35.0779 7.57698 39.7875 10.268 43.6657C13.2692 39.7015 20.3216 38 30 38C39.6784 38 46.7308 39.7015 49.7319 43.6657ZM45.9058 47.9727C45.1253 45.1663 39.5183 43.3333 30 43.3333C20.4816 43.3333 14.8746 45.1663 14.0941 47.9727C18.3288 51.7231 23.8985 54 30 54C36.1015 54 41.6712 51.7231 45.9058 47.9727ZM30 38C24.0289 38 19.3333 33.8063 19.3333 24.6667C19.3333 18.682 23.5442 14 30 14C36.4378 14 40.6666 19.1242 40.6666 25.2C40.6666 33.9456 35.9149 38 30 38ZM24.6666 24.6667C24.6666 30.718 26.8485 32.6667 30 32.6667C33.1405 32.6667 35.3333 30.7957 35.3333 25.2C35.3333 21.8678 33.2417 19.3333 30 19.3333C26.6233 19.3333 24.6666 21.5089 24.6666 24.6667Z" fill="#F72585"/>
</svg>
